<mxfile host="app.diagrams.net" modified="2023-05-11T21:52:11.938Z" agent="Mozilla/5.0 (Windows NT 10.0; Win64; x64) AppleWebKit/537.36 (KHTML, like Gecko) Chrome/111.0.0.0 Safari/537.36 OPR/97.0.0.0" version="21.2.3" etag="eery0Bh5P3MVMTSjAnJv" type="github">
  <diagram name="Page-1" id="FhAam6v1PJ5bGi_w5PGz">
    <mxGraphModel>
      <root>
        <mxCell id="0" />
        <mxCell id="1" parent="0" />
      </root>
    </mxGraphModel>
  </diagram>
</mxfile>
